<svg width="512" height="512" viewBox="0 0 512 512" fill="none" xmlns="http://www.w3.org/2000/svg">
<rect width="512" height="512" fill="black"/>
<mask id="mask0_3092_5591" style="mask-type:alpha" maskUnits="userSpaceOnUse" x="0" y="0" width="512" height="512">
<rect width="512" height="512" fill="#D9D9D9"/>
</mask>
<g mask="url(#mask0_3092_5591)">
<path d="M256 469.333C226.844 469.333 199.289 463.73 173.333 452.523C147.378 441.33 124.715 426.041 105.344 406.656C85.9591 387.285 70.6702 364.622 59.4773 338.667C48.2702 312.711 42.6666 285.156 42.6666 256C42.6666 226.489 48.4408 198.756 59.9893 172.8C71.552 146.844 87.2035 124.267 106.944 105.067C126.67 85.8667 149.689 70.6631 176 59.456C202.311 48.2631 230.4 42.6667 260.267 42.6667C288.711 42.6667 315.556 47.5591 340.8 57.344C366.044 67.1147 388.174 80.6258 407.189 97.8773C426.219 115.115 441.33 135.559 452.523 159.211C463.73 182.848 469.333 208.356 469.333 235.733C469.333 276.622 456.889 307.996 432 329.856C407.111 351.73 376.889 362.667 341.333 362.667H301.867C298.667 362.667 296.448 363.556 295.211 365.333C293.959 367.111 293.333 369.067 293.333 371.2C293.333 375.467 296 381.596 301.333 389.589C306.667 397.596 309.333 406.756 309.333 417.067C309.333 434.844 304.441 448 294.656 456.533C284.885 465.067 272 469.333 256 469.333ZM138.667 277.333C147.911 277.333 155.556 274.311 161.6 268.267C167.644 262.222 170.667 254.578 170.667 245.333C170.667 236.089 167.644 228.444 161.6 222.4C155.556 216.356 147.911 213.333 138.667 213.333C129.422 213.333 121.778 216.356 115.733 222.4C109.689 228.444 106.667 236.089 106.667 245.333C106.667 254.578 109.689 262.222 115.733 268.267C121.778 274.311 129.422 277.333 138.667 277.333ZM202.667 192C211.911 192 219.556 188.978 225.6 182.933C231.644 176.889 234.667 169.244 234.667 160C234.667 150.756 231.644 143.111 225.6 137.067C219.556 131.022 211.911 128 202.667 128C193.422 128 185.778 131.022 179.733 137.067C173.689 143.111 170.667 150.756 170.667 160C170.667 169.244 173.689 176.889 179.733 182.933C185.778 188.978 193.422 192 202.667 192ZM309.333 192C318.578 192 326.222 188.978 332.267 182.933C338.311 176.889 341.333 169.244 341.333 160C341.333 150.756 338.311 143.111 332.267 137.067C326.222 131.022 318.578 128 309.333 128C300.089 128 292.444 131.022 286.4 137.067C280.356 143.111 277.333 150.756 277.333 160C277.333 169.244 280.356 176.889 286.4 182.933C292.444 188.978 300.089 192 309.333 192ZM373.333 277.333C382.578 277.333 390.222 274.311 396.267 268.267C402.311 262.222 405.333 254.578 405.333 245.333C405.333 236.089 402.311 228.444 396.267 222.4C390.222 216.356 382.578 213.333 373.333 213.333C364.089 213.333 356.444 216.356 350.4 222.4C344.355 228.444 341.333 236.089 341.333 245.333C341.333 254.578 344.355 262.222 350.4 268.267C356.444 274.311 364.089 277.333 373.333 277.333Z" fill="url(#paint0_linear_3092_5591)"/>
</g>
<circle cx="138" cy="245" r="33" fill="#2F3857"/>
<circle cx="202" cy="160" r="33" fill="#2F3857"/>
<circle cx="309" cy="160" r="33" fill="#2F3857"/>
<circle cx="373" cy="245" r="33" fill="#2F3857"/>
<defs>
<linearGradient id="paint0_linear_3092_5591" x1="256" y1="42.6667" x2="256" y2="469.333" gradientUnits="userSpaceOnUse">
<stop stop-color="#2761FF"/>
<stop offset="0.0001" stop-color="#E55ADA"/>
<stop offset="1" stop-color="#FA140F"/>
</linearGradient>
</defs>
</svg>
